<mxfile host="app.diagrams.net" modified="2023-04-23T12:30:34.064Z" agent="Mozilla/5.0 (Windows NT 10.0; Win64; x64) AppleWebKit/537.36 (KHTML, like Gecko) Chrome/112.0.0.0 Safari/537.36" version="21.2.1" etag="jLtiqOutULJmcFEf-92y" type="github">
  <diagram name="Page-1" id="aqRNn8h0DzLMlUFE70Ev">
    <mxGraphModel>
      <root>
        <mxCell id="0" />
        <mxCell id="1" parent="0" />
      </root>
    </mxGraphModel>
  </diagram>
</mxfile>
